<svg version="1.1" xmlns="http://www.w3.org/2000/svg" viewBox="0 0 1079.1665293375652 500.58333333333303" width="1079.1665293375652" height="500.58333333333303">
  <!-- svg-source:excalidraw -->
  
  <defs>
    <style class="style-fonts">
      @font-face {
        font-family: "Virgil";
        src: url("https://file%2B.vscode-resource.vscode-cdn.net/c%3A/Users/narud/.vscode/extensions/pomdtr.excalidraw-editor-3.7.4/public//dist/excalidraw-assets/Virgil.woff2");
      }
      @font-face {
        font-family: "Cascadia";
        src: url("https://file%2B.vscode-resource.vscode-cdn.net/c%3A/Users/narud/.vscode/extensions/pomdtr.excalidraw-editor-3.7.4/public//dist/excalidraw-assets/Cascadia.woff2");
      }
      @font-face {
        font-family: "Assistant";
        src: url("https://file%2B.vscode-resource.vscode-cdn.net/c%3A/Users/narud/.vscode/extensions/pomdtr.excalidraw-editor-3.7.4/public//dist/excalidraw-assets/Assistant-Regular.woff2");
      }
    </style>
    
  </defs>
  <g stroke-linecap="round" transform="translate(216.5 10) rotate(0 87.50000000000006 41.5)"><path d="M2.73 1.3 C49.8 3.64, 92.96 5.87, 172.39 -3.6 M1.19 0.72 C59.74 2.33, 115.32 1.36, 173.13 -1.84 M174.42 2.34 C176.02 16.35, 176.1 33.05, 177.67 79.17 M173.75 0.68 C174.02 29.64, 174.69 56.54, 173.49 81.75 M176.4 79.82 C112.37 88.29, 43.7 84.01, -0.48 86 M173.64 83.6 C133.07 80.96, 91.85 77.92, -1.24 82.52 M-2.19 82.23 C-1.72 54.39, -1.56 21.65, -3.33 -3.19 M-0.36 82.63 C1.93 53, 2.2 23.63, 1.45 -0.63" stroke="#1e1e1e" stroke-width="2" fill="none"></path></g><g transform="translate(254.44005584716797 26.5) rotate(0 49.55994415283203 25)"><text x="49.55994415283203" y="0" font-family="Virgil, Segoe UI Emoji" font-size="20px" fill="#1e1e1e" text-anchor="middle" style="white-space: pre;" direction="ltr" dominant-baseline="text-before-edge">Jupyter </text><text x="49.55994415283203" y="25" font-family="Virgil, Segoe UI Emoji" font-size="20px" fill="#1e1e1e" text-anchor="middle" style="white-space: pre;" direction="ltr" dominant-baseline="text-before-edge">Notebooks</text></g><g stroke-linecap="round"><g transform="translate(407.5 189.9973824194724) rotate(0 243.08333333333337 0.6039820413610641)"><path d="M0 0 C101.85 0.43, 204.51 0.59, 486.17 1.21 M0 0 C115 0.83, 229.78 1.07, 486.17 1.21" stroke="#1e1e1e" stroke-width="2" fill="none"></path></g><g transform="translate(407.5 189.9973824194724) rotate(0 243.08333333333337 0.6039820413610641)"><path d="M457.97 11.45 C463.62 8.92, 471.18 6.55, 486.17 1.21 M457.97 11.45 C464.73 9.9, 471.09 7.38, 486.17 1.21" stroke="#1e1e1e" stroke-width="2" fill="none"></path></g><g transform="translate(407.5 189.9973824194724) rotate(0 243.08333333333337 0.6039820413610641)"><path d="M457.98 -9.08 C463.62 -7.3, 471.17 -5.37, 486.17 1.21 M457.98 -9.08 C464.93 -5.77, 471.29 -3.44, 486.17 1.21" stroke="#1e1e1e" stroke-width="2" fill="none"></path></g></g><mask></mask><g stroke-linecap="round" transform="translate(909.6666666666667 158.9166666666672) rotate(0 45 29.5)"><path d="M3.91 0.66 C34.03 -3.92, 62.71 1.67, 88.75 -3.52 M-1.06 1.83 C21.76 2.84, 45.59 -0.83, 91.29 -1.98 M91.93 -1.07 C91.98 25.29, 89.33 46.82, 90.99 56.07 M88.62 -1.42 C88.35 22.85, 89.09 41.28, 88.87 60.14 M86.76 60.15 C59.36 59.51, 22.94 59.7, -0.9 55.14 M89.98 60.26 C58.92 61, 27.19 59.63, 0.12 60.66 M2.85 61.72 C0.87 39.41, -0.98 17.16, 2.96 0.67 M0.66 58.53 C-2.74 41.51, -1.04 25.16, -0.54 0.94" stroke="#1e1e1e" stroke-width="2" fill="none"></path></g><g transform="translate(927.4666849772136 175.9166666666672) rotate(0 27.199981689453125 12.5)"><text x="27.199981689453125" y="0" font-family="Virgil, Segoe UI Emoji" font-size="20px" fill="#1e1e1e" text-anchor="middle" style="white-space: pre;" direction="ltr" dominant-baseline="text-before-edge">HTML</text></g><g stroke-linecap="round"><g transform="translate(403.3333333333337 46.58333333333371) rotate(0 60.833333333333314 72.08333333333337)"><path d="M0 0 C46.24 53.76, 89.66 108.82, 121.67 144.17 M0 0 C35.85 40.67, 71.97 82.5, 121.67 144.17" stroke="#1e1e1e" stroke-width="2" fill="none"></path></g></g><mask></mask><g stroke-linecap="round"><g transform="translate(525.5000000000003 192.25000000000023) rotate(0 -57.583333333333314 68.41666666666674)"><path d="M0 0 C-47.27 52.18, -91.86 106.25, -115.17 136.83 M0 0 C-32.02 38.07, -65.87 77.96, -115.17 136.83" stroke="#1e1e1e" stroke-width="2" fill="none"></path></g></g><mask></mask><g stroke-linecap="round" transform="translate(586.3333333333329 63.250000000000455) rotate(0 78.74999999999994 36.66666666666674)"><path d="M18.33 0 C57.14 2.42, 99.52 1.42, 139.17 0 M18.33 0 C46.58 4, 76.84 3.32, 139.17 0 M139.17 0 C148.47 -2.12, 158.06 4.04, 157.5 18.33 M139.17 0 C148.04 4.35, 156.02 3.93, 157.5 18.33 M157.5 18.33 C157.44 30.36, 156.5 46.52, 157.5 55 M157.5 18.33 C157.29 26.03, 157.43 38.66, 157.5 55 M157.5 55 C156.79 65.2, 149.26 74.17, 139.17 73.33 M157.5 55 C159.34 69.88, 150.49 77.21, 139.17 73.33 M139.17 73.33 C107.13 75.62, 73.29 75.54, 18.33 73.33 M139.17 73.33 C109.15 72.89, 80.45 70.93, 18.33 73.33 M18.33 73.33 C8.79 76.08, 1.3 65.66, 0 55 M18.33 73.33 C4.66 69.87, -1.81 71.44, 0 55 M0 55 C-1.23 38.54, -3.06 32.12, 0 18.33 M0 55 C2.13 40.25, -1.44 30.35, 0 18.33 M0 18.33 C-2.36 3.56, 6.56 3.81, 18.33 0 M0 18.33 C3.79 9.21, 4.16 -2.64, 18.33 0" stroke="#1e1e1e" stroke-width="2" fill="none"></path></g><g transform="translate(600.6934026082351 87.4166666666672) rotate(0 64.38993072509766 12.5)"><text x="64.38993072509766" y="0" font-family="Virgil, Segoe UI Emoji" font-size="20px" fill="#1e1e1e" text-anchor="middle" style="white-space: pre;" direction="ltr" dominant-baseline="text-before-edge">Jupyter-Book</text></g><g transform="translate(213.00000000000023 440.58333333333303) rotate(0 91.8099365234375 25)"><text x="0" y="0" font-family="Virgil, Segoe UI Emoji" font-size="20px" fill="#1e1e1e" text-anchor="start" style="white-space: pre;" direction="ltr" dominant-baseline="text-before-edge">./content</text><text x="0" y="25" font-family="Virgil, Segoe UI Emoji" font-size="20px" fill="#1e1e1e" text-anchor="start" style="white-space: pre;" direction="ltr" dominant-baseline="text-before-edge">on the main branch</text></g><g transform="translate(914.6666666666667 454.4166666666665) rotate(0 77.24993133544922 12.5)"><text x="0" y="0" font-family="Virgil, Segoe UI Emoji" font-size="20px" fill="#1e1e1e" text-anchor="start" style="white-space: pre;" direction="ltr" dominant-baseline="text-before-edge">gh-pages branch</text></g><g stroke-linecap="round" transform="translate(216.5 149.66666666666606) rotate(0 87.50000000000006 41.5)"><path d="M-2.08 1.72 C56.23 3.8, 109.78 4.64, 177.24 2.06 M-0.83 1.16 C38.77 1.85, 76.41 0.39, 174.3 -1.1 M172.54 1.12 C177.4 21.22, 174.49 40.64, 176.39 79.22 M176.46 -1.12 C174.44 26.97, 174.81 52.86, 176 81.41 M177.85 80.78 C117.14 83.24, 59.3 85.51, -0.28 80.06 M173.83 81.95 C118.72 81.55, 60.78 81.32, 0.26 81.08 M2.68 84.5 C1.79 54.78, 3.45 18.43, 3.61 -2.18 M-1.28 81.36 C-0.17 50.84, 0.76 18.61, 1.25 1.66" stroke="#1e1e1e" stroke-width="2" fill="none"></path></g><g transform="translate(254.44005584716797 166.16666666666606) rotate(0 49.55994415283203 25)"><text x="49.55994415283203" y="0" font-family="Virgil, Segoe UI Emoji" font-size="20px" fill="#1e1e1e" text-anchor="middle" style="white-space: pre;" direction="ltr" dominant-baseline="text-before-edge">Jupyter </text><text x="49.55994415283203" y="25" font-family="Virgil, Segoe UI Emoji" font-size="20px" fill="#1e1e1e" text-anchor="middle" style="white-space: pre;" direction="ltr" dominant-baseline="text-before-edge">Notebooks</text></g><g stroke-linecap="round" transform="translate(216.5 288.66666666666606) rotate(0 87.50000000000006 41.5)"><path d="M-1.62 2.02 C41.65 2.17, 89.2 -3.57, 172.76 -2.24 M0.58 0.98 C58.2 3.16, 119.68 2.36, 175.93 0.13 M178.94 1.93 C175.41 28.65, 180.37 57.11, 177.27 83.08 M176.44 -0.6 C174.01 23.91, 175.81 49.17, 175.82 81.67 M174.2 86.64 C114.3 85.17, 61.56 80.09, 1.57 79 M173.96 84.79 C116.66 83.65, 58.73 84.91, 1.07 83.8 M-0.39 83.36 C-1.81 51.56, 1.61 24.29, 0.71 -1.84 M-1.72 81.46 C-0.39 60.9, -0.42 39.22, 1.51 1.61" stroke="#1e1e1e" stroke-width="2" fill="none"></path></g><g transform="translate(254.44005584716797 305.16666666666606) rotate(0 49.55994415283203 25)"><text x="49.55994415283203" y="0" font-family="Virgil, Segoe UI Emoji" font-size="20px" fill="#1e1e1e" text-anchor="middle" style="white-space: pre;" direction="ltr" dominant-baseline="text-before-edge">Jupyter </text><text x="49.55994415283203" y="25" font-family="Virgil, Segoe UI Emoji" font-size="20px" fill="#1e1e1e" text-anchor="middle" style="white-space: pre;" direction="ltr" dominant-baseline="text-before-edge">Notebooks</text></g><g transform="translate(10 150.16666666666606) rotate(0 61.879920959472656 43.27028955105777)"><text x="123.75984191894531" y="0" font-family="Virgil, Segoe UI Emoji" font-size="13.846492656338487px" fill="#1e1e1e" text-anchor="end" style="white-space: pre;" direction="ltr" dominant-baseline="text-before-edge">code block: Python</text><text x="123.75984191894531" y="17.308115820423108" font-family="Virgil, Segoe UI Emoji" font-size="13.846492656338487px" fill="#1e1e1e" text-anchor="end" style="white-space: pre;" direction="ltr" dominant-baseline="text-before-edge"></text><text x="123.75984191894531" y="34.616231640846216" font-family="Virgil, Segoe UI Emoji" font-size="13.846492656338487px" fill="#1e1e1e" text-anchor="end" style="white-space: pre;" direction="ltr" dominant-baseline="text-before-edge">md block</text><text x="123.75984191894531" y="51.92434746126932" font-family="Virgil, Segoe UI Emoji" font-size="13.846492656338487px" fill="#1e1e1e" text-anchor="end" style="white-space: pre;" direction="ltr" dominant-baseline="text-before-edge"></text><text x="123.75984191894531" y="69.23246328169243" font-family="Virgil, Segoe UI Emoji" font-size="13.846492656338487px" fill="#1e1e1e" text-anchor="end" style="white-space: pre;" direction="ltr" dominant-baseline="text-before-edge">raw text</text></g><g transform="translate(616 25.16666666666606) rotate(0 45.31995391845703 12.5)"><text x="0" y="0" font-family="Virgil, Segoe UI Emoji" font-size="20px" fill="#1e1e1e" text-anchor="start" style="white-space: pre;" direction="ltr" dominant-baseline="text-before-edge">python lib</text></g><g transform="translate(571.3801574707031 150.16666666666606) rotate(0 93.80992126464844 12.5)"><text x="187.61984252929688" y="0" font-family="Virgil, Segoe UI Emoji" font-size="20px" fill="#1e1e1e" text-anchor="end" style="white-space: pre;" direction="ltr" dominant-baseline="text-before-edge">Through Git Action</text></g><g stroke-linecap="round"><g transform="translate(413 463.16666666666606) rotate(0 232.5 1)"><path d="M-1.02 -2.61 C76.7 -1.47, 386.15 3.52, 463.94 4.11 M3.62 2.14 C81.08 2.76, 384.35 0.02, 461.13 0.25" stroke="#1e1e1e" stroke-width="2" fill="none"></path></g><g transform="translate(413 463.16666666666606) rotate(0 232.5 1)"><path d="M429.24 9.1 C442.26 9.61, 443.81 3.12, 464.96 0.66 M432.18 12.51 C440.34 5.45, 450.16 2.94, 462.82 1.09" stroke="#1e1e1e" stroke-width="2" fill="none"></path></g><g transform="translate(413 463.16666666666606) rotate(0 232.5 1)"><path d="M429.17 -11.42 C441.8 -6.49, 443.37 -8.56, 464.96 0.66 M432.11 -8.01 C440.36 -8.39, 450.2 -4.23, 462.82 1.09" stroke="#1e1e1e" stroke-width="2" fill="none"></path></g></g><mask></mask></svg>